<svg xmlns="http://www.w3.org/2000/svg" xml:space="preserve" viewBox="0 0 1120 250">
<radialGradient id="a" cx="-1.27" cy="-1.15" r="358.89" gradientTransform="translate(.15 .04)" gradientUnits="userSpaceOnUse">
<stop offset="0" stop-color="#8d7cef"/>
<stop offset=".04" stop-color="#8472ef"/>
<stop offset=".09" stop-color="#7e6bef"/>
<stop offset=".24" stop-color="#7c69ef"/>
<stop offset=".4" stop-color="#7a63e5"/>
<stop offset=".66" stop-color="#7553c9"/>
<stop offset=".99" stop-color="#6c3a9d"/>
<stop offset="1" stop-color="#6c399c"/>
</radialGradient>
<path fill="#7451C3" d="M489.6 156.7c0 8.4.7 19.8 1.2 22H470c-.7-1.9-1.2-6.5-1.4-9.8-3.1 5.4-9.6 11.9-26.1 11.9-21.5 0-30.6-14.2-30.6-28 0-20.3 16.3-29.7 42.7-29.7h13.6V117c0-7-2.3-14.3-15.7-14.3-11.9 0-14.3 5.4-15.6 12.1h-20.8c1.2-14.7 10.5-28.2 37.2-28 23.4.2 36.2 9.4 36.2 30.4v39.5zm-21.1-20h-11.7c-15.9 0-22.9 4.7-22.9 14.9 0 7.3 4.9 13.3 14.5 13.3 17.8 0 20.1-12.2 20.1-25.5v-2.7zm120.6 13.5c-3.3 15-13.8 30.6-39.3 30.6-26.9 0-41.6-18.9-41.6-46.5 0-26.1 15.6-47.6 42.8-47.6 28.7 0 37.4 20.6 38.1 31.3h-21.3c-1.7-8-6.5-14-17.3-14-12.9 0-20.1 11.2-20.1 29.5 0 19.6 7.3 30.1 19.9 30.1 9.4 0 14.7-5.4 17.3-13.5h21.5zm109.8 63.3v-103c0-7.2 0-14.5-.2-21.7h21c.3 2.6.9 8 .9 12.2 4.2-7.5 12.6-14.3 27.1-14.3 20.5 0 35.8 17.1 35.8 44.8 0 31.8-17.3 49.3-39.2 49.3-13.3 0-20.3-5.2-23.8-11.2v43.9h-21.6zM741 104.4c-15.6 0-21.5 10-21.5 29.4 0 18.5 5.2 29.5 20.5 29.5 14.2 0 21.5-11.4 21.5-30.9 0-17.3-7.4-28-20.5-28zm132.7 52.3c0 8.4.7 19.8 1.2 22h-20.8c-.7-1.9-1.2-6.5-1.4-9.8-3.1 5.4-9.6 11.9-26.1 11.9-21.5 0-30.6-14.2-30.6-28 0-20.3 16.3-29.7 42.7-29.7h13.6V117c0-7-2.3-14.3-15.7-14.3-11.9 0-14.3 5.4-15.6 12.1h-20.8c1.2-14.7 10.5-28.2 37.2-28 23.4.2 36.2 9.4 36.2 30.4v39.5zm-21.2-20h-11.7c-15.9 0-22.9 4.7-22.9 14.9 0 7.3 4.9 13.3 14.5 13.3 17.8 0 20.1-12.2 20.1-25.5v-2.7zm120.7 13.5c-3.3 15-13.8 30.6-39.3 30.6-26.9 0-41.6-18.9-41.6-46.5 0-26.1 15.6-47.6 42.8-47.6 28.7 0 37.4 20.6 38.1 31.3h-21.3c-1.7-8-6.5-14-17.3-14-12.9 0-20.1 11.2-20.1 29.5 0 19.6 7.3 30.1 19.9 30.1 9.4 0 14.7-5.4 17.3-13.5h21.5zm-318.9-27.1 32.2-34.3h-25.2c-12.4 14.3-26.9 30.6-33.9 39.5V59.5L605.7 72v106.7h21.7v-29.9l12.2-11.7 25.2 41.6h24.8l-35.3-55.6zm384.1 0 32.2-34.3h-25.2c-12.4 14.3-26.9 30.6-33.9 39.5V59.5L989.8 72v106.7h21.7v-29.9l12.2-11.7 25.2 41.6h24.8l-35.3-55.6zM362.7 86.7c-15.2 0-22.9 6.3-26.8 12.8V59.4l-21.7 12.5V149c0 10 0 19.9-.2 29.7h20.8c.4-2.3.9-6.1.9-9.6 4.4 7.2 10.8 11.7 24.5 11.7 25.7 0 39.2-22.4 39.2-48.8 0-25.7-12.9-45.3-36.7-45.3zm-6.6 76.6c-16.1 0-21.2-12.8-21.2-29.2 0-19.2 5.8-29.7 21.5-29.7 14.2 0 20.8 11.7 20.8 28.1 0 18.6-7.5 30.8-21.1 30.8z"/>
<path fill="url(#a)" d="M0 31.4v188.2C0 236.9 14.1 251 31.4 251h188.2c17.3 0 31.4-14.1 31.4-31.4V31.4C251 14.1 236.9 0 219.6 0H31.4C14.1 0 0 14.1 0 31.4z"/>
<path fill="#FFF" d="M118.4 50v93.5c0 1.2-.7 2.4-1.8 2.9l-32.2 17c-2.2 1.2-4.9-.4-4.9-2.9V71.4c0-2.9 1.5-5.5 4-6.9l29.8-17.4c2.3-1.2 5.1.4 5.1 2.9zm-30 127 34.8 20.1c1.4.8 3.2.8 4.6 0l32.4-18.7a3.3 3.3 0 0 0-.1-5.8L125.6 154c-1.4-.7-3-.7-4.3 0l-32.7 17.3c-2.4 1.1-2.4 4.4-.2 5.7zm83.1-13.5v-40.6c0-1.8-1-3.4-2.5-4.3l-36.1-20.9c-2.2-1.3-5 .3-5 2.9v42c0 1.8 1 3.5 2.6 4.4l36.1 19.5a3.4 3.4 0 0 0 4.9-3z"/>
</svg>